<?xml version="1.0" encoding="UTF-8"?>
<!DOCTYPE svg PUBLIC "-//W3C//DTD SVG 1.1//EN" "http://www.w3.org/Graphics/SVG/1.1/DTD/svg11.dtd">
<svg xmlns="http://www.w3.org/2000/svg" version="1.1" width="500px" height="500px" style="shape-rendering:geometricPrecision; text-rendering:geometricPrecision; image-rendering:optimizeQuality; fill-rule:evenodd; clip-rule:evenodd" xmlns:xlink="http://www.w3.org/1999/xlink">
<g><path style="opacity:1" fill="#0c89a0" d="M 263.5,105.5 C 289.465,130.965 315.299,156.632 341,182.5C 341.667,183.5 341.667,184.5 341,185.5C 329.319,197.348 317.486,209.014 305.5,220.5C 291.847,207.347 278.347,194.014 265,180.5C 264.218,155.504 263.718,130.504 263.5,105.5 Z"/></g>
<g><path style="opacity:1" fill="#5de0e5" d="M 246.5,155.5 C 247.5,155.5 248.5,155.5 249.5,155.5C 248.622,179.868 247.622,204.202 246.5,228.5C 217.14,258.527 187.473,288.194 157.5,317.5C 157.025,293.168 157.525,268.835 159,244.5C 188.007,214.66 217.174,184.993 246.5,155.5 Z"/></g>
<g><path style="opacity:1" fill="#5de0e5" d="M 347.5,183.5 C 348.821,186.598 349.488,190.098 349.5,194C 348.919,214.845 348.085,235.678 347,256.5C 317.333,286.167 287.667,315.833 258,345.5C 257.5,345 257,344.5 256.5,344C 257.672,320.341 258.506,296.508 259,272.5C 288.702,242.965 318.202,213.299 347.5,183.5 Z"/></g>
<g><path style="opacity:1" fill="#0a89a1" d="M 203.5,277.5 C 218.081,290.578 232.248,304.245 246,318.5C 247.446,343.448 248.112,368.448 248,393.5C 222,367.5 196,341.5 170,315.5C 169.333,314.167 169.333,312.833 170,311.5C 181.369,300.298 192.535,288.965 203.5,277.5 Z"/></g>
</svg>
